<svg xmlns="http://www.w3.org/2000/svg" width="130" height="130" viewBox="0 0 130 130" fill="none"><circle cx="65" cy="65" r="65" fill="#F2FFF1"></circle><path d="M48.6288 40.7766C51.8515 36.6929 56.2305 33.5276 61.3555 31.7729C63.2168 33.4047 63.9139 34.8808 64.1025 37.5951C64.3822 41.8548 63.0218 41.7736 61.9213 44.5078C61.2653 46.1807 61.577 48.3865 63.2252 49.1654C63.791 49.4361 64.3978 49.4852 64.9391 49.5262C66.6014 49.6558 66.1232 49.9351 66.6611 51.0597C67.8581 53.7044 71.6816 53.4953 72.6227 50.7644C73.5486 47.9866 70.9042 45.7025 74.9023 45.4918C77.7498 45.3265 78.0916 44.4885 78.3793 42.6218C78.5577 41.5831 79.4108 40.6592 81.0691 40.5717C82.9861 40.5438 83.8571 39.7437 83.8571 37.5786C83.8818 36.3404 83.8899 35.1021 83.9063 33.864C92.5821 38.7594 97.9285 47.837 97.9285 57.874C97.9285 61.441 97.2643 64.9097 95.944 68.1732L91.4257 71.9864C90.0899 67.9779 86.9485 67.5064 86.563 66.0413C86.3235 65.0492 87.3092 63.71 87.1206 62.1709C86.9648 60.8261 85.8824 59.6206 84.3655 59.1123C82.6898 58.5274 79.2752 58.7277 78.0513 59.2926C76.6654 59.9323 75.6732 61.3918 75.4109 63.2123C75.2468 64.3768 75.3862 65.5083 75.5912 66.6565C73.172 66.9351 70.8188 67.7142 68.7112 68.9442C67.2922 69.7925 66.4 70.9906 67.0795 72.5112C65.6843 72.5449 63.4804 72.401 61.3969 72.749C58.8877 73.1344 56.5096 74.0037 54.3775 75.3075C53.0591 73.348 51.3284 72.3191 50.63 70.5514C50.2345 69.5501 50.4312 68.0462 51.4336 67.6732C52.4074 67.2837 53.7747 67.3577 53.8035 64.8687C53.8358 62.7402 53.3896 58.3681 51.3105 57.915C50.0877 57.6264 49.7975 58.5547 46.6037 58.5547C46.4654 58.209 46.3196 55.6924 42.9219 54.5203C43.7133 48.1903 45.5256 45.4316 48.6288 40.7766Z" fill="#348E2B"></path><path d="M65.7303 37.4883C65.5417 34.7085 64.8367 32.9208 63.1719 31.2234C68.1802 29.6608 75.8414 29.9461 82.27 33.011C82.2618 34.528 82.2372 36.0368 82.2126 37.5539C82.2126 38.8867 81.99 38.9189 81.0317 38.9396C78.6529 38.9396 77.0606 40.5756 76.7594 42.3425C76.5499 43.4599 76.9147 43.7216 74.8076 43.8514C69.1214 44.1807 71.6926 48.3427 71.0601 50.2394C70.6038 51.5705 68.7251 51.661 68.1491 50.3788C67.499 48.8952 67.5446 48.0816 65.0576 47.894C64.6312 47.8613 64.2212 47.8285 63.926 47.6807C63.1716 47.3282 63.0732 46.0654 63.4421 45.1142C64.3559 42.796 66.0653 42.2721 65.7303 37.4883Z" fill="#70D767"></path><path d="M31.0967 26C33.5159 28.6322 36.6235 29.3046 40.166 30.0755C44.8647 31.0922 47.3903 34.7168 47.136 40.0304C45.4931 42.1567 44.5483 44.0535 44.4054 44.2864C36.4514 40.2763 36.2218 33.3884 36.2218 33.0849C36.2136 32.642 35.8448 32.2813 35.4019 32.2813C35.3937 32.2813 35.3937 32.2813 35.3856 32.2813C34.9345 32.2895 34.5737 32.6585 34.582 33.1094C34.582 33.4539 34.7953 41.2851 43.6842 45.7623C43.676 45.7706 43.6678 45.787 43.6595 45.7951C40.8569 45.9354 38.1733 45.4001 35.4595 43.8024C29.9897 40.3419 28.2266 32.8553 31.0967 26Z" fill="#348E2B"></path><path d="M60.6922 99.5475L59.4867 104H35.8047L40.3723 91.5442C40.7904 90.4208 42.0697 89.7238 43.3571 90.2402C60.3314 97.2761 59.5852 96.915 59.9215 97.2021C60.6265 97.7599 60.93 98.6783 60.6922 99.5475Z" fill="#348E2B"></path><path d="M97.1204 69.3295C97.7682 68.78 98.7194 68.739 99.4246 69.198C100.383 69.8604 100.523 71.1585 99.8347 71.9945C93.8456 78.337 91.1944 85.5291 82.1717 87.3451L63.5737 91.1171C60.6624 91.6959 60.4264 94.602 59.9985 95.3568C58.396 94.6935 65.803 97.7594 44.3281 88.8705C48.9295 83.8873 51.8141 75.8821 61.6632 74.3645C63.7788 73.9795 67.5252 74.2289 77.6207 74.1512C77.2181 77.1042 74.6806 79.2352 71.7821 79.2352H65.0006C64.5414 79.2352 64.1806 79.596 64.1806 80.0551C64.1806 80.5062 64.5414 80.875 65.0006 80.875H80.5645C82.4177 80.875 84.2218 80.2108 85.6404 79.0137L97.1204 69.3295Z" fill="#348E2B"></path><path d="M49.105 71.1584C49.9505 73.3063 51.9717 74.6077 53.0164 76.2096C51.8567 77.0719 51.4369 77.5358 51.1469 77.7676C44.6357 71.2618 42.75 65.4087 42.75 56.2095C46.3333 57.7402 43.6683 60.0837 46.9731 60.2029C48.7808 60.2029 50.2098 59.6742 50.2942 59.6535C50.9036 59.4433 51.1828 59.2972 51.5407 60.4734C51.9836 61.9167 52.1886 63.3925 52.1638 64.844C52.1638 66.1449 51.7751 65.7489 50.8436 66.1478C48.9309 66.8549 48.3724 69.3124 49.105 71.1584Z" fill="#70D767"></path><path d="M31.6062 55.7009C30.9831 51.6336 32.2868 47.7714 35.0749 45.4917C37.4418 46.6753 37.4818 46.5724 38.1007 46.7792C36.7149 48.0337 35.6407 49.5343 34.8944 51.2565C34.714 51.6749 34.9108 52.1586 35.3208 52.3389C35.791 52.5196 36.2266 52.2966 36.4032 51.9125C37.215 50.0349 38.4776 48.4685 40.1424 47.2385L40.7655 47.3287C42.315 47.5503 42.8894 47.3777 42.9715 47.4597C42.2119 49.5085 41.6976 51.3825 41.3315 53.9544C40.5442 54.2577 39.6833 54.4053 38.7483 54.3971C36.1082 54.3642 33.7793 54.3314 31.6062 55.7009Z" fill="#348E2B"></path><path d="M77.2059 67.8536C77.3453 67.665 77.3945 67.386 77.3535 67.1564C77.1157 65.9182 76.8696 64.6309 77.0337 63.4417C77.1733 62.4659 77.6979 61.2604 78.7393 60.785C79.5769 60.3902 82.5618 60.2247 83.8398 60.6622C84.5942 60.9164 85.398 61.5395 85.4964 62.3678C85.5538 62.827 85.3899 63.352 85.2258 63.9094C83.5863 69.3567 88.8332 67.7459 90.0557 73.1428L84.5865 77.7594C82.0173 79.9346 79.3591 79.0193 76.4845 79.2355C78.364 77.7044 79.3298 75.5644 79.3298 73.3314C79.3298 72.8803 78.961 72.5115 78.5099 72.5115C78.5017 72.5115 78.5017 72.5115 78.5017 72.5115H69.0224C68.2377 71.6031 68.2538 71.1373 69.5472 70.3551C71.6874 69.1086 74.1313 68.3622 76.6158 68.2148C76.845 68.198 77.0581 68.0422 77.2059 67.8536Z" fill="#70D767"></path></svg>