<svg xmlns="http://www.w3.org/2000/svg" width="52" height="52" viewBox="0 0 52 52" fill="none"><circle cx="26" cy="26" r="26" fill="#F2FFF1"></circle><g clip-path="url(#clip0_2225_4101)"><path d="M37.7576 17.0103H36.69V23.4099C36.69 23.9145 36.2805 24.324 35.7759 24.324C35.2714 24.324 34.8619 23.9145 34.8619 23.4099V17.0103H33.7936C33.2927 17.0103 32.8144 17.1071 32.375 17.2833C33.1684 18.2607 33.6443 19.5056 33.6443 20.8603V28.6908C33.6443 29.0113 33.5889 29.319 33.4871 29.6048H40.682C41.1866 29.6048 41.5961 29.1953 41.5961 28.6908V20.8603C41.5961 18.7372 39.874 17.0103 37.7576 17.0103Z" fill="#348E2B"></path><path d="M35.7788 17.0028C37.3782 17.0028 38.6748 15.7025 38.6748 14.0986C38.6748 12.4946 37.3782 11.1943 35.7788 11.1943C34.1794 11.1943 32.8828 12.4946 32.8828 14.0986C32.8828 15.7025 34.1794 17.0028 35.7788 17.0028Z" fill="#70D767"></path><path d="M32.121 39.9355C32.1445 40.4226 32.5463 40.8055 33.034 40.8055H38.387C38.8727 40.8055 39.2735 40.4257 39.2998 39.9407L39.7594 31.4331H31.7109L32.121 39.9355Z" fill="#70D767"></path><path d="M12.5662 39.9355C12.5898 40.4226 12.9915 40.8055 13.4792 40.8055H18.8323C19.3179 40.8055 19.7188 40.4257 19.745 39.9407L20.2046 31.4331H12.1562L12.5662 39.9355Z" fill="#70D767"></path><path d="M18.3502 28.6908V20.8603C18.3502 19.5056 18.8261 18.2607 19.6195 17.2833C19.1801 17.1071 18.7018 17.0103 18.2009 17.0103H17.1326V23.4099C17.1326 23.9145 16.7231 24.324 16.2186 24.324C15.714 24.324 15.3045 23.9145 15.3045 23.4099V17.0103H14.2369C12.1205 17.0103 10.3984 18.7372 10.3984 20.8603V28.6908C10.3984 29.1953 10.8079 29.6048 11.3125 29.6048H18.5074C18.4056 29.319 18.3502 29.0113 18.3502 28.6908Z" fill="#348E2B"></path><path d="M16.2163 17.0028C17.8157 17.0028 19.1123 15.7025 19.1123 14.0986C19.1123 12.4946 17.8157 11.1943 16.2163 11.1943C14.6169 11.1943 13.3203 12.4946 13.3203 14.0986C13.3203 15.7025 14.6169 17.0028 16.2163 17.0028Z" fill="#70D767"></path><path d="M22.3474 39.9354C22.3709 40.4226 22.7727 40.8055 23.2604 40.8055H28.6135C29.0992 40.8055 29.5 40.4257 29.5263 39.9407L29.9859 31.4331H21.9375L22.3474 39.9354Z" fill="#70D767"></path><path d="M31.82 20.8607C31.82 18.7375 30.0982 17.0103 27.9818 17.0103H26.9139V23.41C26.9139 23.9148 26.5046 24.324 25.9998 24.324C25.495 24.324 25.0858 23.9148 25.0858 23.41V17.0103H24.0179C21.9015 17.0103 20.1797 18.7375 20.1797 20.8607V28.6908C20.1797 29.1956 20.5889 29.6049 21.0937 29.6049H30.906C31.4108 29.6049 31.82 29.1956 31.82 28.6908V20.8607Z" fill="#348E2B"></path><path d="M26.0601 17.0028C27.6595 17.0028 28.956 15.7025 28.956 14.0986C28.956 12.4946 27.6595 11.1943 26.0601 11.1943C24.4606 11.1943 23.1641 12.4946 23.1641 14.0986C23.1641 15.7025 24.4606 17.0028 26.0601 17.0028Z" fill="#70D767"></path></g><defs><clipPath id="clip0_2225_4101"><rect width="31.2" height="31.2" fill="white" transform="translate(10.3984 10.3999)"></rect></clipPath></defs></svg>