<svg xmlns="http://www.w3.org/2000/svg" width="52" height="52" viewBox="0 0 52 52" fill="none"><circle cx="26" cy="26" r="26" fill="#F2FFF1"></circle><path fill-rule="evenodd" clip-rule="evenodd" d="M30.4909 40.0999V34.5148C30.3221 33.1042 32.6834 30.4925 35.1191 27.9368C35.5024 27.5342 35.8333 27.1872 36.0471 26.9451C36.4621 26.4768 37.0971 26.3102 37.6669 26.4641V20.5531C37.6669 19.4823 38.5462 18.6113 39.6272 18.6113C40.7083 18.6113 41.5882 19.4823 41.5882 20.5531V30.8504C41.5882 30.9313 41.5553 31.0085 41.4974 31.0653L35.9765 36.4445V40.0999V40.1071L35.9758 40.1149L35.9752 40.1228L35.9746 40.1306L35.974 40.1379L35.9728 40.1457L35.9716 40.153L35.9704 40.1602L35.9685 40.1675V40.1681L35.9667 40.1747V40.1753L35.9649 40.1819L35.9624 40.1892L35.96 40.1964L35.9576 40.2031L35.9551 40.2103L35.9521 40.217L35.949 40.2236L35.946 40.2302L35.9429 40.2369L35.9393 40.2435L35.9356 40.2495L35.932 40.2562L35.9283 40.2622L35.924 40.2683L35.9198 40.2743L35.9155 40.2803L35.9113 40.2858L35.9064 40.2918L35.9021 40.2972L35.8972 40.3027L35.8924 40.3081L35.8869 40.3129L35.882 40.3178L35.8765 40.3232L35.871 40.328L35.8655 40.3322L35.8595 40.3371L35.854 40.3413L35.8479 40.3455L35.8418 40.3497L35.8357 40.354L35.8296 40.3576L35.8235 40.3612L35.8168 40.3648L35.8101 40.3685L35.8034 40.3715L35.7967 40.3745L35.79 40.3775L35.7833 40.3805L35.7766 40.3829L35.7693 40.3854L35.762 40.3878L35.7553 40.3896L35.7479 40.392L35.7406 40.3938L35.7327 40.395L35.7254 40.3968L35.7181 40.398L35.7102 40.3986L35.7028 40.3998L35.6949 40.4004L35.687 40.4011H35.6797H35.6718H30.7955H30.7876H30.7803L30.7724 40.4004L30.7645 40.3998L30.7572 40.3986L30.7492 40.398L30.7419 40.3968L30.7346 40.395L30.7267 40.3938L30.7194 40.392L30.7121 40.3902V40.3896L30.7054 40.3878L30.698 40.3854L30.6907 40.3829L30.684 40.3805L30.6773 40.3775L30.67 40.3745L30.6633 40.3715L30.6572 40.3685L30.6505 40.3648L30.6438 40.3612L30.6377 40.3576L30.6316 40.354L30.6255 40.3497L30.6194 40.3455L30.6133 40.3413L30.6079 40.3371L30.6018 40.3322L30.5963 40.328L30.5908 40.3232L30.5853 40.3184V40.3178L30.5804 40.3129L30.575 40.3081L30.5701 40.3027L30.5652 40.2972L30.5603 40.2918L30.5561 40.2858L30.5518 40.2803L30.5475 40.2743L30.5433 40.2683L30.539 40.2622L30.5353 40.2562L30.5317 40.2495L30.528 40.2435L30.5244 40.2369L30.5213 40.2302L30.5183 40.2236L30.5152 40.217L30.5122 40.2103L30.5098 40.2031L30.5073 40.1964L30.5049 40.1892L30.5024 40.1825V40.1819L30.5006 40.1753V40.1747L30.4988 40.1681V40.1675L30.4976 40.1602L30.4957 40.153L30.4945 40.1457L30.4933 40.1379L30.4927 40.1306L30.4921 40.1228L30.4915 40.1149L30.4909 40.1071V40.0999ZM21.1833 40.4011H16.307H16.2997H16.2918L16.2839 40.4004L16.276 40.3998L16.2687 40.3986L16.2607 40.398L16.2534 40.3968L16.2461 40.395L16.2382 40.3938L16.2309 40.392L16.2242 40.3902V40.3896L16.2169 40.3878L16.2095 40.3854L16.2022 40.3829L16.1955 40.3805L16.1888 40.3775L16.1821 40.3745L16.1754 40.3715L16.1687 40.3685L16.162 40.3648L16.1553 40.3612L16.1492 40.3576L16.1431 40.354L16.137 40.3497L16.1309 40.3455L16.1248 40.3413L16.1194 40.3371L16.1133 40.3322L16.1078 40.328L16.1023 40.3232L16.0968 40.3184V40.3178L16.0919 40.3129L16.0865 40.3081L16.0816 40.3027L16.0767 40.2972L16.0724 40.2918L16.0676 40.2858L16.0633 40.2803L16.059 40.2743L16.0548 40.2683L16.0505 40.2622L16.0468 40.2562L16.0432 40.2495L16.0395 40.2435L16.0359 40.2369L16.0328 40.2302L16.0298 40.2236L16.0267 40.217L16.0237 40.2103L16.0213 40.2031L16.0188 40.1964L16.0164 40.1892L16.0139 40.1825V40.1819L16.0121 40.1753V40.1747L16.0103 40.1681V40.1675L16.0091 40.1602L16.0072 40.153L16.006 40.1457L16.0048 40.1379L16.0042 40.1306L16.0036 40.1228L16.003 40.1149V40.1071L16.0024 40.0999V36.4445L10.482 31.0653C10.4235 31.0085 10.3906 30.9313 10.3906 30.8504V20.5531C10.3906 19.4823 11.2706 18.6113 12.3516 18.6113C13.4326 18.6113 14.312 19.4823 14.312 20.5531V26.4641C14.8817 26.3102 15.5167 26.4768 15.9317 26.9451C16.1456 27.1866 16.4765 27.5342 16.8598 27.9362C19.2954 30.4919 21.6574 33.1042 21.488 34.5148V40.0999C21.488 40.2664 21.3515 40.4011 21.1833 40.4011Z" fill="#348E2B"></path><path fill-rule="evenodd" clip-rule="evenodd" d="M25.7632 28.4837C24.3269 28.4837 22.9643 28.168 21.7413 27.6037C21.918 27.5747 22.0716 27.5494 22.1173 27.5403C22.436 27.4763 22.8747 27.3701 23.2751 27.2729C23.4567 27.2289 23.6237 27.189 23.7535 27.1588C25.2647 26.81 25.6407 26.4774 25.6078 24.6443C25.6035 24.4203 25.645 24.2604 25.7132 24.2362C25.7595 24.2193 26.2153 24.1131 27.8125 25.502C28.5413 26.1351 29.4883 27.0991 29.9051 27.5469C28.6516 28.1469 27.2464 28.4837 25.7632 28.4837ZM20.3751 26.8311C19.1313 25.9873 18.0985 24.8597 17.3715 23.5433C17.4592 23.533 17.5457 23.5101 17.6268 23.4757C18.9741 22.9005 19.8437 21.5871 19.8437 20.1348C19.8437 18.3645 18.5671 16.8549 16.806 16.5507C16.717 16.535 16.6274 16.5332 16.5391 16.5434C16.5701 16.4312 16.603 16.3195 16.6378 16.209C16.9059 16.2084 17.3873 16.2103 17.5354 16.2115C18.3111 16.2199 18.9772 16.2211 19.2678 16.1487C20.458 15.8529 21.0722 16.3762 21.3775 16.8682C21.9089 17.7235 21.8065 18.9337 21.3604 19.4449C20.8388 20.0419 19.2142 22.1683 20.224 24.4445C20.3879 24.8139 20.5024 25.4597 20.497 25.9969C20.4951 26.1418 20.4342 26.5239 20.3751 26.8311ZM16.8505 15.6055C17.1771 14.7719 17.6195 13.9945 18.1588 13.2937C18.2155 13.3879 18.2898 13.4718 18.3782 13.5406C18.8724 13.9244 19.4702 14.1285 20.0978 14.1285C21.6365 14.1285 22.8869 12.8893 22.8869 11.3658C22.8869 11.0332 22.8272 10.7049 22.709 10.3934C22.6688 10.2878 22.6097 10.1918 22.5353 10.1097C23.5444 9.74999 24.631 9.55322 25.7632 9.55322C26.2178 9.55322 26.6644 9.58521 27.102 9.64618C26.4183 9.98057 25.4957 10.4477 24.8857 10.8153C23.3519 11.7412 22.6407 12.5229 22.712 13.2044C22.773 13.785 23.3507 14.1846 24.4786 14.4254C24.4926 14.4284 24.8168 14.5063 24.9753 14.8781C25.1313 15.2427 25.2166 16.1408 24.0411 18.0609C23.5883 18.8021 23.4768 19.323 23.6907 19.6996C23.9881 20.2223 24.7748 20.2229 25.5353 20.2235C25.8503 20.2235 26.1769 20.2235 26.4353 20.2622C26.9825 20.3437 28.7869 20.7481 29.0233 22.5287C29.1446 23.4455 29.4694 23.9477 29.988 24.0208C30.0288 24.0262 30.0696 24.0292 30.1098 24.0292C30.2098 24.0292 30.3091 24.0123 30.4072 23.9815C29.9971 24.4523 29.7485 25.065 29.7485 25.7344C29.7485 26.0621 29.8088 26.3862 29.9258 26.6904C29.4395 26.1907 28.7729 25.5334 28.2147 25.0481C26.4999 23.5572 25.8479 23.5463 25.5066 23.6683C25.2678 23.7534 24.9862 23.9936 24.9984 24.6551C25.0264 26.2009 24.826 26.2915 23.6151 26.5709C23.4835 26.6011 23.3147 26.6422 23.1307 26.6868C22.7596 26.7768 22.2824 26.892 21.9704 26.9536C21.8784 26.9717 21.0509 27.1033 20.9948 27.1099C20.9747 27.1124 20.9558 27.1166 20.9375 27.122C21.0125 26.7707 21.0996 26.254 21.1045 26.0561C21.1216 25.4114 20.9857 24.6612 20.7821 24.2018C19.9162 22.2492 21.3586 20.369 21.8211 19.8397C22.492 19.0713 22.5268 17.5659 21.8967 16.5519C21.322 15.6272 20.3099 15.2674 19.1192 15.5632C18.8815 15.6224 18.043 15.6133 17.5421 15.6079C17.4257 15.6067 17.1131 15.6061 16.8505 15.6055ZM28.0959 9.83933C28.2049 9.86649 28.3128 9.89546 28.42 9.92624C28.3731 9.98419 28.3335 10.0494 28.3024 10.12C28.0965 10.5836 27.9923 11.0779 27.9923 11.5843C27.9923 13.5907 29.64 15.2228 31.6656 15.2228C32.476 15.2228 33.2481 14.9644 33.8922 14.4779C33.955 14.4309 34.0092 14.3777 34.0555 14.3192C34.2128 14.5902 34.3566 14.8703 34.487 15.157L31.4797 21.9504C31.122 22.7592 30.4395 23.4739 30.0739 23.4232C29.871 23.3942 29.704 23.0309 29.6272 22.4502C29.3957 20.7028 27.8734 19.8662 26.5255 19.6652C26.2226 19.62 25.8735 19.62 25.5353 19.62C25.0325 19.6193 24.3445 19.6193 24.2221 19.4033C24.1892 19.3459 24.1172 19.1021 24.5627 18.3735C25.5743 16.7209 25.8991 15.4588 25.528 14.6228C25.2373 13.9667 24.6279 13.8393 24.6066 13.8351C23.8162 13.6667 23.347 13.4138 23.3184 13.1422C23.3031 12.9937 23.3927 12.4245 25.1983 11.3338C26.0569 10.8153 27.6023 10.0729 28.0959 9.83933ZM34.8026 15.9471C35.1372 16.911 35.3188 17.9438 35.3188 19.0188C35.3188 20.6968 34.8752 22.274 34.0982 23.6423C34.0318 23.5608 33.9513 23.4902 33.8587 23.4347C33.4364 23.1824 32.9526 23.0496 32.459 23.0496C32.0617 23.0496 31.6845 23.1347 31.3438 23.2874C31.6442 22.9391 31.8898 22.5275 32.0379 22.1931L34.8026 15.9471Z" fill="#348E2B"></path><path fill-rule="evenodd" clip-rule="evenodd" d="M30.9127 26.9358C30.8902 26.9358 30.867 26.9334 30.8445 26.928C30.7628 26.9098 30.6921 26.8585 30.6501 26.7867C30.4612 26.4686 30.3618 26.1047 30.3618 25.734C30.3618 24.5866 31.3045 23.6529 32.463 23.6529C32.8463 23.6529 33.2216 23.7561 33.5477 23.951C33.6196 23.9945 33.6707 24.0645 33.6884 24.146C33.7061 24.2275 33.689 24.3126 33.6415 24.3808C32.9517 25.3725 32.0906 26.2145 31.0821 26.8845C31.0315 26.9183 30.9724 26.9358 30.9127 26.9358ZM31.6696 14.6189C29.9804 14.6189 28.6056 13.2572 28.6056 11.584C28.6056 11.1597 28.6928 10.7492 28.864 10.3629C28.9298 10.2145 29.1017 10.1444 29.254 10.2036C31.006 10.8838 32.5056 12.053 33.5915 13.5843C33.6854 13.7171 33.6573 13.8994 33.5269 13.9978C32.9895 14.404 32.3472 14.6189 31.6696 14.6189ZM20.1018 13.5246C19.6094 13.5246 19.1451 13.3658 18.7581 13.0652C18.6917 13.0139 18.6497 12.9367 18.643 12.8528C18.6356 12.7689 18.6643 12.6862 18.7216 12.624C19.5759 11.7011 20.5875 10.9659 21.7282 10.4384C21.8056 10.4028 21.894 10.4004 21.9726 10.4323C22.0512 10.4637 22.1127 10.5265 22.1426 10.6056C22.2346 10.8482 22.2815 11.1041 22.2815 11.3655C22.2815 12.5558 21.3041 13.5246 20.1018 13.5246ZM17.2688 22.9454C17.231 22.9454 17.1926 22.9388 17.1567 22.9243C17.0811 22.8947 17.0208 22.8368 16.9891 22.7632C16.473 21.5783 16.2109 20.318 16.2109 19.0185C16.2109 18.474 16.2591 17.926 16.3523 17.3906C16.3663 17.3115 16.4114 17.2409 16.4772 17.195C16.5437 17.1491 16.6253 17.131 16.7051 17.1449C18.1731 17.3984 19.2389 18.6557 19.2389 20.1345C19.2389 21.3459 18.5132 22.4396 17.3895 22.9207C17.3511 22.9376 17.3103 22.9454 17.2688 22.9454Z" fill="#70D767"></path></svg>