<svg xmlns="http://www.w3.org/2000/svg" width="52" height="52" viewBox="0 0 52 52" fill="none"><circle cx="26" cy="26" r="26" fill="#F2FFF1"></circle><path d="M20.1062 39.2569C20.1066 39.3518 20.079 39.445 20.0266 39.5262C19.9742 39.6074 19.899 39.6734 19.8091 39.717C18.3675 40.4284 16.7632 40.8 15.1344 40.7998C13.5056 40.7995 11.9013 40.4274 10.46 39.7155C10.0045 39.5165 10.2088 38.8045 10.1663 38.3361C10.1441 37.5419 10.4588 36.772 11.0412 36.1953C11.6237 35.6187 12.4262 35.2826 13.2725 35.2607H17C17.8463 35.2826 18.6488 35.6187 19.2312 36.1953C19.8136 36.772 20.1283 37.5419 20.1062 38.3361V39.2569ZM31.1506 39.4414C31.1514 39.5382 31.123 39.6333 31.0687 39.7156C31.0144 39.7979 30.9363 39.8642 30.8436 39.9067C29.5629 40.492 28.1571 40.7962 26.7326 40.7962C25.3081 40.7962 23.9022 40.492 22.6216 39.9067C22.5292 39.8632 22.4516 39.7965 22.3975 39.7139C22.3434 39.6313 22.3148 39.5362 22.3151 39.4393V38.7232C22.3151 38.036 22.606 37.377 23.1238 36.8912C23.6416 36.4053 24.3439 36.1323 25.0762 36.1323H28.3895C28.7521 36.1323 29.1112 36.1993 29.4462 36.3295C29.7812 36.4597 30.0855 36.6506 30.3419 36.8912C30.5983 37.1317 30.8017 37.4174 30.9405 37.7317C31.0792 38.046 31.1506 38.3829 31.1506 38.7232V39.4414ZM42.195 39.4414C42.1958 39.5382 42.1674 39.6333 42.1131 39.7156C42.0588 39.7979 41.9807 39.8642 41.888 39.9067C40.6073 40.492 39.2015 40.7962 37.777 40.7962C36.3525 40.7962 34.9467 40.492 33.666 39.9067C33.5737 39.8632 33.496 39.7965 33.4419 39.7139C33.3878 39.6313 33.3592 39.5362 33.3595 39.4393V38.7232C33.3595 38.036 33.6504 37.377 34.1682 36.8912C34.686 36.4053 35.3883 36.1323 36.1206 36.1323H39.4339C40.1662 36.1323 40.8685 36.4053 41.3863 36.8912C41.9041 37.377 42.195 38.036 42.195 38.7232V39.4414Z" fill="#348E2B"></path><path opacity="0.1" d="M15.6191 36.7357H15.206C14.9131 36.7357 14.6322 36.6265 14.425 36.4321C14.2179 36.2378 14.1016 35.9742 14.1016 35.6993V34.2754H16.723V35.6993C16.723 35.9742 16.6066 36.2378 16.3995 36.4321C16.1923 36.6265 15.912 36.7357 15.6191 36.7357ZM26.9263 37.5104H26.5442C26.302 37.5104 26.0696 37.4201 25.8983 37.2593C25.7271 37.0986 25.6308 36.8806 25.6308 36.6533V35.4382H27.8397V36.6538C27.8397 36.8811 27.7435 37.0991 27.5722 37.2598C27.4009 37.4206 27.1686 37.5109 26.9263 37.5109V37.5104ZM38.0354 37.5104H37.524C37.2989 37.5104 37.083 37.4264 36.9238 37.2771C36.7647 37.1277 36.6752 36.9251 36.6752 36.7139V35.4382H38.8841V36.7144C38.8841 36.9257 38.7947 37.1282 38.6355 37.2776C38.4763 37.427 38.2605 37.5109 38.0354 37.5109V37.5104Z" fill="black"></path><path d="M16.7246 33.7593V35.1791C16.7246 35.4539 16.6082 35.7175 16.4011 35.9119C16.194 36.1062 15.9131 36.2154 15.6202 36.2154H15.206C14.9131 36.2154 14.6322 36.1062 14.425 35.9119C14.2179 35.7175 14.1016 35.4539 14.1016 35.1791V33.7593H16.7246ZM27.8408 34.92V36.1377C27.8405 36.3644 27.7444 36.5817 27.5736 36.742C27.4028 36.9022 27.1712 36.9924 26.9296 36.9927H26.5431C26.3015 36.9924 26.0699 36.9022 25.8991 36.742C25.7283 36.5817 25.6322 36.3644 25.6319 36.1377V34.92H27.8408ZM38.8852 34.92V36.1947C38.8852 36.4063 38.7956 36.6093 38.6361 36.759C38.4767 36.9086 38.2603 36.9927 38.0348 36.9927H37.5268C37.3012 36.9927 37.0849 36.9086 36.9254 36.759C36.7659 36.6093 36.6763 36.4063 36.6763 36.1947V34.92H38.8852Z" fill="#DEFFDB"></path><path d="M38.4869 23.6289C38.5133 23.6699 38.5271 23.7169 38.5269 23.7648C38.5266 23.8127 38.5122 23.8596 38.4854 23.9003C38.4586 23.941 38.4203 23.974 38.3748 23.9956C38.3292 24.0172 38.2782 24.0266 38.2274 24.0228C36.764 23.9502 35.9743 23.5719 35.5601 23.147C30.314 25.5068 21.7452 22.9906 21.7657 17.8202C21.9948 13.7287 26.4143 11.6648 30.8773 11.6021C38.023 11.4726 43.2029 17.5876 37.6807 21.9449C37.871 22.5365 38.142 23.1025 38.4869 23.6289Z" fill="#70D767"></path><path opacity="0.1" d="M27.8408 34.92V35.8942C27.4447 35.9869 27.0291 35.9755 26.6395 35.8612C26.2498 35.747 25.9013 35.5343 25.6319 35.2464V34.92H27.8408ZM38.8852 34.92V35.8942C38.4891 35.9869 38.0735 35.9755 37.6839 35.8612C37.2943 35.747 36.9457 35.5343 36.6763 35.2464V34.92H38.8852ZM16.7246 33.7593V35.0443C16.2663 35.1691 15.7805 35.1752 15.3188 35.0621C14.857 34.949 14.4364 34.7209 14.1016 34.4018V33.7593H16.7246Z" fill="black"></path><path d="M29.2103 33.6133C28.6001 36.7405 24.8649 36.7229 24.2591 33.6138C24.1394 33.6343 24.0164 33.6299 23.8988 33.6009C23.7812 33.5719 23.6718 33.519 23.5783 33.4459C23.4849 33.3728 23.4098 33.2813 23.3582 33.1779C23.3066 33.0746 23.2799 32.9618 23.2799 32.8477C23.2799 32.7336 23.3066 32.6208 23.3582 32.5174C23.4098 32.4141 23.4849 32.3226 23.5783 32.2495C23.6718 32.1764 23.7812 32.1235 23.8988 32.0945C24.0164 32.0655 24.1394 32.0611 24.2591 32.0816V30.9763C24.92 30.3668 25.8097 30.0253 26.7364 30.0253C27.6631 30.0253 28.5527 30.3668 29.2136 30.9763V32.0816C29.3334 32.0611 29.4565 32.0655 29.5743 32.0946C29.692 32.1238 29.8015 32.1768 29.8949 32.2501C29.9884 32.3234 30.0635 32.415 30.1149 32.5186C30.1664 32.6221 30.1929 32.7351 30.1927 32.8493C30.1924 32.9636 30.1654 33.0764 30.1135 33.1797C30.0616 33.2831 29.9861 33.3745 29.8923 33.4474C29.7986 33.5203 29.6889 33.5729 29.571 33.6016C29.4531 33.6303 29.33 33.6343 29.2103 33.6133ZM40.2547 33.6133C39.6445 36.7405 35.9093 36.7229 35.3035 33.6138C35.1839 33.6343 35.0609 33.6299 34.9432 33.6009C34.8256 33.5719 34.7162 33.519 34.6227 33.4459C34.5293 33.3728 34.4542 33.2813 34.4026 33.1779C34.351 33.0746 34.3243 32.9618 34.3243 32.8477C34.3243 32.7336 34.351 32.6208 34.4026 32.5174C34.4542 32.4141 34.5293 32.3226 34.6227 32.2495C34.7162 32.1764 34.8256 32.1235 34.9432 32.0945C35.0609 32.0655 35.1839 32.0611 35.3035 32.0816V30.9763C35.9859 30.4068 36.8675 30.0921 37.7808 30.0921C38.6941 30.0921 39.5756 30.4068 40.258 30.9763V32.0816C40.3778 32.0611 40.5009 32.0655 40.6187 32.0946C40.7364 32.1238 40.8459 32.1768 40.9393 32.2501C41.0328 32.3234 41.1079 32.415 41.1593 32.5186C41.2108 32.6221 41.2374 32.7351 41.2371 32.8493C41.2369 32.9636 41.2098 33.0764 41.1579 33.1797C41.106 33.2831 41.0305 33.3745 40.9367 33.4474C40.843 33.5203 40.7333 33.5729 40.6154 33.6016C40.4976 33.6303 40.3744 33.6343 40.2547 33.6133ZM18.3492 32.3614C17.6076 36.0803 13.2097 36.0596 12.4731 32.3629C12.3311 32.387 12.1853 32.3816 12.0459 32.347C11.9064 32.3124 11.7768 32.2495 11.6661 32.1628C11.5554 32.076 11.4664 31.9675 11.4053 31.8449C11.3442 31.7223 11.3125 31.5886 11.3125 31.4533C11.3125 31.318 11.3442 31.1843 11.4053 31.0617C11.4664 30.9391 11.5554 30.8306 11.6661 30.7438C11.7768 30.6571 11.9064 30.5942 12.0459 30.5596C12.1853 30.525 12.3311 30.5195 12.4731 30.5436V29.2321C13.2622 28.5169 14.3165 28.1172 15.4136 28.1172C16.5108 28.1172 17.565 28.5169 18.3542 29.2321V30.5431C18.4963 30.5191 18.6422 30.5247 18.7817 30.5596C18.9213 30.5944 19.0509 30.6575 19.1615 30.7445C19.2722 30.8316 19.361 30.9403 19.4219 31.0632C19.4828 31.186 19.5141 31.3199 19.5138 31.4553C19.5134 31.5908 19.4813 31.7245 19.4198 31.847C19.3582 31.9696 19.2687 32.0779 19.1576 32.1644C19.0465 32.2509 18.9166 32.3134 18.7769 32.3475C18.6372 32.3817 18.4912 32.3866 18.3492 32.3619V32.3614Z" fill="#DEFFDB"></path><path d="M29.1296 32.8708C28.907 31.3401 28.552 30.9774 28.2692 30.9287C27.9269 30.8691 27.7943 31.2883 27.1852 31.4582C26.2012 31.7318 25.5208 30.9224 24.9211 31.1935C24.6461 31.3178 24.3396 31.6893 24.3358 32.8708C24.3358 32.3961 24.0795 31.4033 24.0795 30.9287C24.061 30.4937 24.227 30.0695 24.5411 29.7492C24.8553 29.4288 25.292 29.2384 25.7555 29.2197H27.7104C28.1739 29.2384 28.6106 29.4288 28.9248 29.7492C29.2389 30.0695 29.4049 30.4937 29.3864 30.9287L29.1296 32.8708ZM40.174 32.8708C39.9515 31.3401 39.5964 30.9774 39.3136 30.9287C38.9713 30.8691 38.8387 31.2883 38.2296 31.4582C37.2456 31.7318 36.5652 30.9224 35.9655 31.1935C35.6905 31.3178 35.384 31.6893 35.3802 32.8708C35.3802 32.3961 35.1239 31.4033 35.1239 30.9287C35.1054 30.4937 35.2714 30.0695 35.5855 29.7492C35.8997 29.4288 36.3364 29.2384 36.7999 29.2197H38.7548C39.2183 29.2384 39.655 29.4288 39.9692 29.7492C40.2833 30.0695 40.4493 30.4937 40.4308 30.9287L40.174 32.8708Z" fill="#348E2B"></path><path d="M18.2843 32.0595C18.3185 31.8558 18.5306 30.4775 17.5819 29.6313C17.4454 29.4851 17.2793 29.3659 17.0931 29.2807C16.907 29.1954 16.7046 29.1459 16.4979 29.1349C15.8462 29.1623 15.7446 29.7795 14.9649 29.9785C14.205 30.1723 13.824 29.708 13.3607 29.9204C13.0305 30.0723 12.6953 30.5516 12.7687 32.0595C12.7687 31.4957 12.3766 29.8961 12.3766 29.3328C12.3548 28.8166 12.5519 28.3133 12.9247 27.9332C13.2975 27.553 13.8157 27.327 14.3657 27.3047H16.6867C17.2368 27.327 17.755 27.553 18.1278 27.9332C18.5006 28.3133 18.6977 28.8166 18.6758 29.3328L18.2843 32.0595Z" fill="#348E2B"></path><path opacity="0.1" d="M33.9144 20.4105C33.8857 21.7478 33.3011 23.0216 32.2853 23.96C25.4875 24.885 18.461 19.3566 23.4001 14.265C28.4402 13.6017 34.0629 16.5683 33.9144 20.4105Z" fill="#F2FFF1"></path><path d="M17.9983 25.5749C12.4761 21.2181 17.6499 15.0995 24.8 15.2296C29.8324 15.2296 33.9117 18.0132 33.9117 21.4477C33.9067 26.6501 25.3533 29.1218 20.1194 26.7745C19.7008 27.1994 18.915 27.5777 17.4478 27.6523C17.3972 27.6554 17.3467 27.6454 17.3018 27.6235C17.2568 27.6017 17.219 27.5687 17.1926 27.5282C17.1661 27.4877 17.1519 27.4411 17.1515 27.3936C17.1511 27.3461 17.1646 27.2994 17.1904 27.2585C17.5336 26.7309 17.805 26.1657 17.9983 25.5749Z" fill="#348E2B"></path><path d="M31.4785 22.4831H30.9262C30.7798 22.4831 30.6393 22.4285 30.5358 22.3314C30.4322 22.2342 30.374 22.1024 30.374 21.965C30.374 21.8275 30.4322 21.6957 30.5358 21.5985C30.6393 21.5014 30.7798 21.4468 30.9262 21.4468H31.4785C31.6249 21.4468 31.7654 21.5014 31.8689 21.5985C31.9725 21.6957 32.0307 21.8275 32.0307 21.965C32.0307 22.1024 31.9725 22.2342 31.8689 22.3314C31.7654 22.4285 31.6249 22.4831 31.4785 22.4831ZM28.6969 22.4831H27.5825C27.4361 22.4831 27.2956 22.4285 27.1921 22.3314C27.0885 22.2342 27.0303 22.1024 27.0303 21.965C27.0303 21.8275 27.0885 21.6957 27.1921 21.5985C27.2956 21.5014 27.4361 21.4468 27.5825 21.4468H28.6969C28.8434 21.4468 28.9838 21.5014 29.0874 21.5985C29.191 21.6957 29.2491 21.8275 29.2491 21.965C29.2491 22.1024 29.191 22.2342 29.0874 22.3314C28.9838 22.4285 28.8434 22.4831 28.6969 22.4831ZM25.3538 22.4831H24.2388C24.0924 22.4831 23.9519 22.4285 23.8484 22.3314C23.7448 22.2342 23.6866 22.1024 23.6866 21.965C23.6866 21.8275 23.7448 21.6957 23.8484 21.5985C23.9519 21.5014 24.0924 21.4468 24.2388 21.4468H25.3532C25.4997 21.4468 25.6401 21.5014 25.7437 21.5985C25.8473 21.6957 25.9054 21.8275 25.9054 21.965C25.9054 22.1024 25.8473 22.2342 25.7437 22.3314C25.6401 22.4285 25.4997 22.4831 25.3532 22.4831H25.3538ZM22.0101 22.4831H20.8963C20.7498 22.4831 20.6093 22.4285 20.5058 22.3314C20.4022 22.2342 20.344 22.1024 20.344 21.965C20.344 21.8275 20.4022 21.6957 20.5058 21.5985C20.6093 21.5014 20.7498 21.4468 20.8963 21.4468H22.0101C22.1565 21.4468 22.297 21.5014 22.4006 21.5985C22.5041 21.6957 22.5623 21.8275 22.5623 21.965C22.5623 22.1024 22.5041 22.2342 22.4006 22.3314C22.297 22.4285 22.1565 22.4831 22.0101 22.4831ZM18.6669 22.4831H18.1147C17.9683 22.4831 17.8278 22.4285 17.7242 22.3314C17.6207 22.2342 17.5625 22.1024 17.5625 21.965C17.5625 21.8275 17.6207 21.6957 17.7242 21.5985C17.8278 21.5014 17.9683 21.4468 18.1147 21.4468H18.6669C18.8134 21.4468 18.9539 21.5014 19.0574 21.5985C19.161 21.6957 19.2192 21.8275 19.2192 21.965C19.2192 22.1024 19.161 22.2342 19.0574 22.3314C18.9539 22.4285 18.8134 22.4831 18.6669 22.4831Z" fill="#E0FFDE"></path></svg>